<?xml version="1.0" encoding="UTF-8" standalone="no"?>
<!DOCTYPE svg PUBLIC "-//W3C//DTD SVG 1.1//EN"
 "http://www.w3.org/Graphics/SVG/1.1/DTD/svg11.dtd">
<!-- Generated by graphviz version 2.47.0 (20210316.0004)
 -->
<!-- Title: dbml Pages: 1 -->
<svg width="2149pt" height="1891pt"
 viewBox="0.00 0.00 2148.99 1891.33" xmlns="http://www.w3.org/2000/svg" xmlns:xlink="http://www.w3.org/1999/xlink">
<g id="graph0" class="graph" transform="scale(1 1) rotate(0) translate(4 1887.33)">
<title>dbml</title>
<!-- users -->
<g id="users" class="node">
<title>users</title>
<ellipse fill="none" stroke="black" stroke-width="0" cx="1829.16" cy="-917.24" rx="287.59" ry="214.92"/>
<polygon fill="#1d71b8" stroke="transparent" points="1628.16,-1007.24 1628.16,-1067.24 2031.16,-1067.24 2031.16,-1007.24 1628.16,-1007.24"/>
<polygon fill="none" stroke="#29235c" points="1628.16,-1007.24 1628.16,-1067.24 2031.16,-1067.24 2031.16,-1007.24 1628.16,-1007.24"/>
<text text-anchor="start" x="1728.3" y="-1028.44" font-family="Helvetica,sans-Serif" font-weight="bold" font-size="32.00" fill="#ffffff"> &#160;&#160;&#160;&#160;&#160;&#160;users &#160;&#160;&#160;&#160;&#160;&#160;</text>
<polygon fill="#e7e2dd" stroke="transparent" points="1628.16,-947.24 1628.16,-1007.24 2031.16,-1007.24 2031.16,-947.24 1628.16,-947.24"/>
<polygon fill="none" stroke="#29235c" points="1628.16,-947.24 1628.16,-1007.24 2031.16,-1007.24 2031.16,-947.24 1628.16,-947.24"/>
<text text-anchor="start" x="1639.16" y="-968.44" font-family="Helvetica,sans-Serif" font-weight="bold" font-size="32.00" fill="#29235c">id</text>
<text text-anchor="start" x="1664.05" y="-968.44" font-family="Helvetica,sans-Serif" font-size="32.00" fill="#29235c"> &#160;&#160;&#160;</text>
<text text-anchor="start" x="1943.73" y="-968.44" font-family="Helvetica,sans-Serif" font-style="italic" font-size="32.00" fill="#29235c">serial</text>
<polygon fill="#e7e2dd" stroke="transparent" points="1628.16,-887.24 1628.16,-947.24 2031.16,-947.24 2031.16,-887.24 1628.16,-887.24"/>
<polygon fill="none" stroke="#29235c" points="1628.16,-887.24 1628.16,-947.24 2031.16,-947.24 2031.16,-887.24 1628.16,-887.24"/>
<text text-anchor="start" x="1639.16" y="-907.44" font-family="Helvetica,sans-Serif" font-size="32.00" fill="#29235c">email &#160;&#160;&#160;</text>
<text text-anchor="start" x="1799.73" y="-908.44" font-family="Helvetica,sans-Serif" font-style="italic" font-size="32.00" fill="#29235c">varchar(255)</text>
<text text-anchor="start" x="1981.07" y="-908.44" font-family="Helvetica,sans-Serif" font-size="32.00" fill="#29235c"> </text>
<text text-anchor="start" x="1989.96" y="-908.44" font-family="Helvetica,sans-Serif" font-weight="bold" font-size="32.00" fill="#29235c">(!)</text>
<polygon fill="#e7e2dd" stroke="transparent" points="1628.16,-827.24 1628.16,-887.24 2031.16,-887.24 2031.16,-827.24 1628.16,-827.24"/>
<polygon fill="none" stroke="#29235c" points="1628.16,-827.24 1628.16,-887.24 2031.16,-887.24 2031.16,-827.24 1628.16,-827.24"/>
<text text-anchor="start" x="1639.16" y="-847.44" font-family="Helvetica,sans-Serif" font-size="32.00" fill="#29235c">created_at &#160;&#160;&#160;</text>
<text text-anchor="start" x="1833.51" y="-848.44" font-family="Helvetica,sans-Serif" font-style="italic" font-size="32.00" fill="#29235c">timestamp</text>
<text text-anchor="start" x="1981.07" y="-848.44" font-family="Helvetica,sans-Serif" font-size="32.00" fill="#29235c"> </text>
<text text-anchor="start" x="1989.96" y="-848.44" font-family="Helvetica,sans-Serif" font-weight="bold" font-size="32.00" fill="#29235c">(!)</text>
<polygon fill="#e7e2dd" stroke="transparent" points="1628.16,-767.24 1628.16,-827.24 2031.16,-827.24 2031.16,-767.24 1628.16,-767.24"/>
<polygon fill="none" stroke="#29235c" points="1628.16,-767.24 1628.16,-827.24 2031.16,-827.24 2031.16,-767.24 1628.16,-767.24"/>
<text text-anchor="start" x="1638.83" y="-787.44" font-family="Helvetica,sans-Serif" font-size="32.00" fill="#29235c">updated_at &#160;&#160;&#160;</text>
<text text-anchor="start" x="1833.84" y="-788.44" font-family="Helvetica,sans-Serif" font-style="italic" font-size="32.00" fill="#29235c">timestamp</text>
<text text-anchor="start" x="1981.39" y="-788.44" font-family="Helvetica,sans-Serif" font-size="32.00" fill="#29235c"> </text>
<text text-anchor="start" x="1990.29" y="-788.44" font-family="Helvetica,sans-Serif" font-weight="bold" font-size="32.00" fill="#29235c">(!)</text>
<polygon fill="none" stroke="#29235c" stroke-width="2" points="1626.66,-766.24 1626.66,-1068.24 2031.66,-1068.24 2031.66,-766.24 1626.66,-766.24"/>
</g>
<!-- repositories -->
<g id="repositories" class="node">
<title>repositories</title>
<ellipse fill="none" stroke="black" stroke-width="0" cx="1829.16" cy="-342.24" rx="311.67" ry="342.48"/>
<polygon fill="#1d71b8" stroke="transparent" points="1611.16,-522.24 1611.16,-582.24 2048.16,-582.24 2048.16,-522.24 1611.16,-522.24"/>
<polygon fill="none" stroke="#29235c" points="1611.16,-522.24 1611.16,-582.24 2048.16,-582.24 2048.16,-522.24 1611.16,-522.24"/>
<text text-anchor="start" x="1684.74" y="-543.44" font-family="Helvetica,sans-Serif" font-weight="bold" font-size="32.00" fill="#ffffff"> &#160;&#160;&#160;&#160;&#160;&#160;repositories &#160;&#160;&#160;&#160;&#160;&#160;</text>
<polygon fill="#e7e2dd" stroke="transparent" points="1611.16,-462.24 1611.16,-522.24 2048.16,-522.24 2048.16,-462.24 1611.16,-462.24"/>
<polygon fill="none" stroke="#29235c" points="1611.16,-462.24 1611.16,-522.24 2048.16,-522.24 2048.16,-462.24 1611.16,-462.24"/>
<text text-anchor="start" x="1622.16" y="-483.44" font-family="Helvetica,sans-Serif" font-weight="bold" font-size="32.00" fill="#29235c">id</text>
<text text-anchor="start" x="1647.05" y="-483.44" font-family="Helvetica,sans-Serif" font-size="32.00" fill="#29235c"> &#160;&#160;&#160;</text>
<text text-anchor="start" x="1960.73" y="-483.44" font-family="Helvetica,sans-Serif" font-style="italic" font-size="32.00" fill="#29235c">serial</text>
<polygon fill="#e7e2dd" stroke="transparent" points="1611.16,-402.24 1611.16,-462.24 2048.16,-462.24 2048.16,-402.24 1611.16,-402.24"/>
<polygon fill="none" stroke="#29235c" points="1611.16,-402.24 1611.16,-462.24 2048.16,-462.24 2048.16,-402.24 1611.16,-402.24"/>
<text text-anchor="start" x="1622.16" y="-422.44" font-family="Helvetica,sans-Serif" font-size="32.00" fill="#29235c">owner &#160;&#160;&#160;</text>
<text text-anchor="start" x="1816.73" y="-423.44" font-family="Helvetica,sans-Serif" font-style="italic" font-size="32.00" fill="#29235c">varchar(255)</text>
<text text-anchor="start" x="1998.07" y="-423.44" font-family="Helvetica,sans-Serif" font-size="32.00" fill="#29235c"> </text>
<text text-anchor="start" x="2006.96" y="-423.44" font-family="Helvetica,sans-Serif" font-weight="bold" font-size="32.00" fill="#29235c">(!)</text>
<polygon fill="#e7e2dd" stroke="transparent" points="1611.16,-342.24 1611.16,-402.24 2048.16,-402.24 2048.16,-342.24 1611.16,-342.24"/>
<polygon fill="none" stroke="#29235c" points="1611.16,-342.24 1611.16,-402.24 2048.16,-402.24 2048.16,-342.24 1611.16,-342.24"/>
<text text-anchor="start" x="1622.16" y="-362.44" font-family="Helvetica,sans-Serif" font-size="32.00" fill="#29235c">repo &#160;&#160;&#160;</text>
<text text-anchor="start" x="1816.73" y="-363.44" font-family="Helvetica,sans-Serif" font-style="italic" font-size="32.00" fill="#29235c">varchar(255)</text>
<text text-anchor="start" x="1998.07" y="-363.44" font-family="Helvetica,sans-Serif" font-size="32.00" fill="#29235c"> </text>
<text text-anchor="start" x="2006.96" y="-363.44" font-family="Helvetica,sans-Serif" font-weight="bold" font-size="32.00" fill="#29235c">(!)</text>
<polygon fill="#e7e2dd" stroke="transparent" points="1611.16,-282.24 1611.16,-342.24 2048.16,-342.24 2048.16,-282.24 1611.16,-282.24"/>
<polygon fill="none" stroke="#29235c" points="1611.16,-282.24 1611.16,-342.24 2048.16,-342.24 2048.16,-282.24 1611.16,-282.24"/>
<text text-anchor="start" x="1621.78" y="-302.44" font-family="Helvetica,sans-Serif" font-size="32.00" fill="#29235c">last_seen_tag &#160;&#160;&#160;</text>
<text text-anchor="start" x="1855.99" y="-303.44" font-family="Helvetica,sans-Serif" font-style="italic" font-size="32.00" fill="#29235c">varchar(255)</text>
<polygon fill="#e7e2dd" stroke="transparent" points="1611.16,-222.24 1611.16,-282.24 2048.16,-282.24 2048.16,-222.24 1611.16,-222.24"/>
<polygon fill="none" stroke="#29235c" points="1611.16,-222.24 1611.16,-282.24 2048.16,-282.24 2048.16,-222.24 1611.16,-222.24"/>
<text text-anchor="start" x="1622.16" y="-242.44" font-family="Helvetica,sans-Serif" font-size="32.00" fill="#29235c">last_checked_at &#160;&#160;&#160;</text>
<text text-anchor="start" x="1889.6" y="-243.44" font-family="Helvetica,sans-Serif" font-style="italic" font-size="32.00" fill="#29235c">timestamp</text>
<polygon fill="#e7e2dd" stroke="transparent" points="1611.16,-162.24 1611.16,-222.24 2048.16,-222.24 2048.16,-162.24 1611.16,-162.24"/>
<polygon fill="none" stroke="#29235c" points="1611.16,-162.24 1611.16,-222.24 2048.16,-222.24 2048.16,-162.24 1611.16,-162.24"/>
<text text-anchor="start" x="1622.16" y="-182.44" font-family="Helvetica,sans-Serif" font-size="32.00" fill="#29235c">created_at &#160;&#160;&#160;</text>
<text text-anchor="start" x="1850.51" y="-183.44" font-family="Helvetica,sans-Serif" font-style="italic" font-size="32.00" fill="#29235c">timestamp</text>
<text text-anchor="start" x="1998.07" y="-183.44" font-family="Helvetica,sans-Serif" font-size="32.00" fill="#29235c"> </text>
<text text-anchor="start" x="2006.96" y="-183.44" font-family="Helvetica,sans-Serif" font-weight="bold" font-size="32.00" fill="#29235c">(!)</text>
<polygon fill="#e7e2dd" stroke="transparent" points="1611.16,-102.24 1611.16,-162.24 2048.16,-162.24 2048.16,-102.24 1611.16,-102.24"/>
<polygon fill="none" stroke="#29235c" points="1611.16,-102.24 1611.16,-162.24 2048.16,-162.24 2048.16,-102.24 1611.16,-102.24"/>
<text text-anchor="start" x="1622.16" y="-122.44" font-family="Helvetica,sans-Serif" font-size="32.00" fill="#29235c">updated_at &#160;&#160;&#160;</text>
<text text-anchor="start" x="1850.51" y="-123.44" font-family="Helvetica,sans-Serif" font-style="italic" font-size="32.00" fill="#29235c">timestamp</text>
<text text-anchor="start" x="1998.07" y="-123.44" font-family="Helvetica,sans-Serif" font-size="32.00" fill="#29235c"> </text>
<text text-anchor="start" x="2006.96" y="-123.44" font-family="Helvetica,sans-Serif" font-weight="bold" font-size="32.00" fill="#29235c">(!)</text>
<polygon fill="none" stroke="#29235c" stroke-width="2" points="1609.66,-101.24 1609.66,-583.24 2048.66,-583.24 2048.66,-101.24 1609.66,-101.24"/>
</g>
<!-- subscriptions -->
<g id="subscriptions" class="node">
<title>subscriptions</title>
<ellipse fill="none" stroke="black" stroke-width="0" cx="1105.15" cy="-614.24" rx="376.36" ry="384.83"/>
<polygon fill="#1d71b8" stroke="transparent" points="841.15,-824.24 841.15,-884.24 1369.15,-884.24 1369.15,-824.24 841.15,-824.24"/>
<polygon fill="none" stroke="#29235c" points="841.15,-824.24 841.15,-884.24 1369.15,-884.24 1369.15,-824.24 841.15,-824.24"/>
<text text-anchor="start" x="949.55" y="-845.44" font-family="Helvetica,sans-Serif" font-weight="bold" font-size="32.00" fill="#ffffff"> &#160;&#160;&#160;&#160;&#160;&#160;subscriptions &#160;&#160;&#160;&#160;&#160;&#160;</text>
<polygon fill="#e7e2dd" stroke="transparent" points="841.15,-764.24 841.15,-824.24 1369.15,-824.24 1369.15,-764.24 841.15,-764.24"/>
<polygon fill="none" stroke="#29235c" points="841.15,-764.24 841.15,-824.24 1369.15,-824.24 1369.15,-764.24 841.15,-764.24"/>
<text text-anchor="start" x="852.15" y="-785.44" font-family="Helvetica,sans-Serif" font-weight="bold" font-size="32.00" fill="#29235c">id</text>
<text text-anchor="start" x="877.04" y="-785.44" font-family="Helvetica,sans-Serif" font-size="32.00" fill="#29235c"> &#160;&#160;&#160;</text>
<text text-anchor="start" x="1281.71" y="-785.44" font-family="Helvetica,sans-Serif" font-style="italic" font-size="32.00" fill="#29235c">serial</text>
<polygon fill="#e7e2dd" stroke="transparent" points="841.15,-704.24 841.15,-764.24 1369.15,-764.24 1369.15,-704.24 841.15,-704.24"/>
<polygon fill="none" stroke="#29235c" points="841.15,-704.24 841.15,-764.24 1369.15,-764.24 1369.15,-704.24 841.15,-704.24"/>
<text text-anchor="start" x="852.15" y="-724.44" font-family="Helvetica,sans-Serif" font-size="32.00" fill="#29235c">user_id &#160;&#160;&#160;</text>
<text text-anchor="start" x="1221.25" y="-725.44" font-family="Helvetica,sans-Serif" font-style="italic" font-size="32.00" fill="#29235c">integer</text>
<text text-anchor="start" x="1319.05" y="-725.44" font-family="Helvetica,sans-Serif" font-size="32.00" fill="#29235c"> </text>
<text text-anchor="start" x="1327.95" y="-725.44" font-family="Helvetica,sans-Serif" font-weight="bold" font-size="32.00" fill="#29235c">(!)</text>
<polygon fill="#e7e2dd" stroke="transparent" points="841.15,-644.24 841.15,-704.24 1369.15,-704.24 1369.15,-644.24 841.15,-644.24"/>
<polygon fill="none" stroke="#29235c" points="841.15,-644.24 841.15,-704.24 1369.15,-704.24 1369.15,-644.24 841.15,-644.24"/>
<text text-anchor="start" x="852.15" y="-664.44" font-family="Helvetica,sans-Serif" font-size="32.00" fill="#29235c">repository_id &#160;&#160;&#160;</text>
<text text-anchor="start" x="1221.25" y="-665.44" font-family="Helvetica,sans-Serif" font-style="italic" font-size="32.00" fill="#29235c">integer</text>
<text text-anchor="start" x="1319.05" y="-665.44" font-family="Helvetica,sans-Serif" font-size="32.00" fill="#29235c"> </text>
<text text-anchor="start" x="1327.95" y="-665.44" font-family="Helvetica,sans-Serif" font-weight="bold" font-size="32.00" fill="#29235c">(!)</text>
<polygon fill="#e7e2dd" stroke="transparent" points="841.15,-584.24 841.15,-644.24 1369.15,-644.24 1369.15,-584.24 841.15,-584.24"/>
<polygon fill="none" stroke="#29235c" points="841.15,-584.24 841.15,-644.24 1369.15,-644.24 1369.15,-584.24 841.15,-584.24"/>
<text text-anchor="start" x="852.15" y="-604.44" font-family="Helvetica,sans-Serif" font-size="32.00" fill="#29235c">status &#160;&#160;&#160;</text>
<text text-anchor="start" x="1155.5" y="-605.44" font-family="Helvetica,sans-Serif" font-style="italic" font-size="32.00" fill="#29235c">varchar(20)</text>
<text text-anchor="start" x="1319.05" y="-605.44" font-family="Helvetica,sans-Serif" font-size="32.00" fill="#29235c"> </text>
<text text-anchor="start" x="1327.95" y="-605.44" font-family="Helvetica,sans-Serif" font-weight="bold" font-size="32.00" fill="#29235c">(!)</text>
<polygon fill="#e7e2dd" stroke="transparent" points="841.15,-524.24 841.15,-584.24 1369.15,-584.24 1369.15,-524.24 841.15,-524.24"/>
<polygon fill="none" stroke="#29235c" points="841.15,-524.24 841.15,-584.24 1369.15,-584.24 1369.15,-524.24 841.15,-524.24"/>
<text text-anchor="start" x="852.15" y="-544.44" font-family="Helvetica,sans-Serif" font-size="32.00" fill="#29235c">confirm_token &#160;&#160;&#160;</text>
<text text-anchor="start" x="1155.5" y="-545.44" font-family="Helvetica,sans-Serif" font-style="italic" font-size="32.00" fill="#29235c">varchar(64)</text>
<text text-anchor="start" x="1319.05" y="-545.44" font-family="Helvetica,sans-Serif" font-size="32.00" fill="#29235c"> </text>
<text text-anchor="start" x="1327.95" y="-545.44" font-family="Helvetica,sans-Serif" font-weight="bold" font-size="32.00" fill="#29235c">(!)</text>
<polygon fill="#e7e2dd" stroke="transparent" points="841.15,-464.24 841.15,-524.24 1369.15,-524.24 1369.15,-464.24 841.15,-464.24"/>
<polygon fill="none" stroke="#29235c" points="841.15,-464.24 841.15,-524.24 1369.15,-524.24 1369.15,-464.24 841.15,-464.24"/>
<text text-anchor="start" x="852.09" y="-484.44" font-family="Helvetica,sans-Serif" font-size="32.00" fill="#29235c">unsubscribe_token &#160;&#160;&#160;</text>
<text text-anchor="start" x="1155.82" y="-485.44" font-family="Helvetica,sans-Serif" font-style="italic" font-size="32.00" fill="#29235c">varchar(64)</text>
<text text-anchor="start" x="1319.38" y="-485.44" font-family="Helvetica,sans-Serif" font-size="32.00" fill="#29235c"> </text>
<text text-anchor="start" x="1328.27" y="-485.44" font-family="Helvetica,sans-Serif" font-weight="bold" font-size="32.00" fill="#29235c">(!)</text>
<polygon fill="#e7e2dd" stroke="transparent" points="841.15,-404.24 841.15,-464.24 1369.15,-464.24 1369.15,-404.24 841.15,-404.24"/>
<polygon fill="none" stroke="#29235c" points="841.15,-404.24 841.15,-464.24 1369.15,-464.24 1369.15,-404.24 841.15,-404.24"/>
<text text-anchor="start" x="852.15" y="-424.44" font-family="Helvetica,sans-Serif" font-size="32.00" fill="#29235c">created_at &#160;&#160;&#160;</text>
<text text-anchor="start" x="1171.5" y="-425.44" font-family="Helvetica,sans-Serif" font-style="italic" font-size="32.00" fill="#29235c">timestamp</text>
<text text-anchor="start" x="1319.05" y="-425.44" font-family="Helvetica,sans-Serif" font-size="32.00" fill="#29235c"> </text>
<text text-anchor="start" x="1327.95" y="-425.44" font-family="Helvetica,sans-Serif" font-weight="bold" font-size="32.00" fill="#29235c">(!)</text>
<polygon fill="#e7e2dd" stroke="transparent" points="841.15,-344.24 841.15,-404.24 1369.15,-404.24 1369.15,-344.24 841.15,-344.24"/>
<polygon fill="none" stroke="#29235c" points="841.15,-344.24 841.15,-404.24 1369.15,-404.24 1369.15,-344.24 841.15,-344.24"/>
<text text-anchor="start" x="852.15" y="-364.44" font-family="Helvetica,sans-Serif" font-size="32.00" fill="#29235c">updated_at &#160;&#160;&#160;</text>
<text text-anchor="start" x="1171.5" y="-365.44" font-family="Helvetica,sans-Serif" font-style="italic" font-size="32.00" fill="#29235c">timestamp</text>
<text text-anchor="start" x="1319.05" y="-365.44" font-family="Helvetica,sans-Serif" font-size="32.00" fill="#29235c"> </text>
<text text-anchor="start" x="1327.95" y="-365.44" font-family="Helvetica,sans-Serif" font-weight="bold" font-size="32.00" fill="#29235c">(!)</text>
<polygon fill="none" stroke="#29235c" stroke-width="2" points="840.15,-343.24 840.15,-885.24 1370.15,-885.24 1370.15,-343.24 840.15,-343.24"/>
</g>
<!-- subscriptions&#45;&gt;users -->
<!-- subscriptions&#45;&gt;users -->
<g id="edge2" class="edge">
<title>subscriptions:e&#45;&gt;users:w</title>
<path fill="none" stroke="#29235c" stroke-width="3" d="M1370.15,-734.24C1523.82,-734.24 1472.43,-966.45 1616.89,-976.88"/>
<polygon fill="#29235c" stroke="#29235c" stroke-width="3" points="1617.04,-980.38 1627.16,-977.24 1617.29,-973.39 1617.04,-980.38"/>
<text text-anchor="middle" x="1636.05" y="-986.84" font-family="Helvetica,sans-Serif" font-size="32.00" fill="#29235c">1</text>
<text text-anchor="middle" x="1376.37" y="-743.84" font-family="Helvetica,sans-Serif" font-size="32.00" fill="#29235c">*</text>
</g>
<!-- subscriptions&#45;&gt;repositories -->
<!-- subscriptions&#45;&gt;repositories -->
<g id="edge4" class="edge">
<title>subscriptions:e&#45;&gt;repositories:w</title>
<path fill="none" stroke="#29235c" stroke-width="3" d="M1370.15,-674.24C1500.49,-674.24 1477.64,-501.71 1599.9,-492.61"/>
<polygon fill="#29235c" stroke="#29235c" stroke-width="3" points="1600.29,-496.1 1610.16,-492.24 1600.04,-489.11 1600.29,-496.1"/>
<text text-anchor="middle" x="1619.05" y="-463.44" font-family="Helvetica,sans-Serif" font-size="32.00" fill="#29235c">1</text>
<text text-anchor="middle" x="1376.37" y="-683.84" font-family="Helvetica,sans-Serif" font-size="32.00" fill="#29235c">*</text>
</g>
<!-- scan_jobs -->
<g id="scan_jobs" class="node">
<title>scan_jobs</title>
<ellipse fill="none" stroke="black" stroke-width="0" cx="346.48" cy="-1456.24" rx="346.46" ry="427.19"/>
<polygon fill="#1d71b8" stroke="transparent" points="103.48,-1696.24 103.48,-1756.24 589.48,-1756.24 589.48,-1696.24 103.48,-1696.24"/>
<polygon fill="none" stroke="#29235c" points="103.48,-1696.24 103.48,-1756.24 589.48,-1756.24 589.48,-1696.24 103.48,-1696.24"/>
<text text-anchor="start" x="212.21" y="-1717.44" font-family="Helvetica,sans-Serif" font-weight="bold" font-size="32.00" fill="#ffffff"> &#160;&#160;&#160;&#160;&#160;&#160;scan_jobs &#160;&#160;&#160;&#160;&#160;&#160;</text>
<polygon fill="#e7e2dd" stroke="transparent" points="103.48,-1636.24 103.48,-1696.24 589.48,-1696.24 589.48,-1636.24 103.48,-1636.24"/>
<polygon fill="none" stroke="#29235c" points="103.48,-1636.24 103.48,-1696.24 589.48,-1696.24 589.48,-1636.24 103.48,-1636.24"/>
<text text-anchor="start" x="114.48" y="-1657.44" font-family="Helvetica,sans-Serif" font-weight="bold" font-size="32.00" fill="#29235c">id</text>
<text text-anchor="start" x="139.37" y="-1657.44" font-family="Helvetica,sans-Serif" font-size="32.00" fill="#29235c"> &#160;&#160;&#160;</text>
<text text-anchor="start" x="502.05" y="-1657.44" font-family="Helvetica,sans-Serif" font-style="italic" font-size="32.00" fill="#29235c">serial</text>
<polygon fill="#e7e2dd" stroke="transparent" points="103.48,-1576.24 103.48,-1636.24 589.48,-1636.24 589.48,-1576.24 103.48,-1576.24"/>
<polygon fill="none" stroke="#29235c" points="103.48,-1576.24 103.48,-1636.24 589.48,-1636.24 589.48,-1576.24 103.48,-1576.24"/>
<text text-anchor="start" x="114.48" y="-1596.44" font-family="Helvetica,sans-Serif" font-size="32.00" fill="#29235c">status &#160;&#160;&#160;</text>
<text text-anchor="start" x="375.84" y="-1597.44" font-family="Helvetica,sans-Serif" font-style="italic" font-size="32.00" fill="#29235c">varchar(20)</text>
<text text-anchor="start" x="539.39" y="-1597.44" font-family="Helvetica,sans-Serif" font-size="32.00" fill="#29235c"> </text>
<text text-anchor="start" x="548.28" y="-1597.44" font-family="Helvetica,sans-Serif" font-weight="bold" font-size="32.00" fill="#29235c">(!)</text>
<polygon fill="#e7e2dd" stroke="transparent" points="103.48,-1516.24 103.48,-1576.24 589.48,-1576.24 589.48,-1516.24 103.48,-1516.24"/>
<polygon fill="none" stroke="#29235c" points="103.48,-1516.24 103.48,-1576.24 589.48,-1576.24 589.48,-1516.24 103.48,-1516.24"/>
<text text-anchor="start" x="114.48" y="-1536.44" font-family="Helvetica,sans-Serif" font-size="32.00" fill="#29235c">repos_checked &#160;&#160;&#160;</text>
<text text-anchor="start" x="441.59" y="-1537.44" font-family="Helvetica,sans-Serif" font-style="italic" font-size="32.00" fill="#29235c">integer</text>
<text text-anchor="start" x="539.39" y="-1537.44" font-family="Helvetica,sans-Serif" font-size="32.00" fill="#29235c"> </text>
<text text-anchor="start" x="548.28" y="-1537.44" font-family="Helvetica,sans-Serif" font-weight="bold" font-size="32.00" fill="#29235c">(!)</text>
<polygon fill="#e7e2dd" stroke="transparent" points="103.48,-1456.24 103.48,-1516.24 589.48,-1516.24 589.48,-1456.24 103.48,-1456.24"/>
<polygon fill="none" stroke="#29235c" points="103.48,-1456.24 103.48,-1516.24 589.48,-1516.24 589.48,-1456.24 103.48,-1456.24"/>
<text text-anchor="start" x="114.48" y="-1476.44" font-family="Helvetica,sans-Serif" font-size="32.00" fill="#29235c">releases_found &#160;&#160;&#160;</text>
<text text-anchor="start" x="441.59" y="-1477.44" font-family="Helvetica,sans-Serif" font-style="italic" font-size="32.00" fill="#29235c">integer</text>
<text text-anchor="start" x="539.39" y="-1477.44" font-family="Helvetica,sans-Serif" font-size="32.00" fill="#29235c"> </text>
<text text-anchor="start" x="548.28" y="-1477.44" font-family="Helvetica,sans-Serif" font-weight="bold" font-size="32.00" fill="#29235c">(!)</text>
<polygon fill="#e7e2dd" stroke="transparent" points="103.48,-1396.24 103.48,-1456.24 589.48,-1456.24 589.48,-1396.24 103.48,-1396.24"/>
<polygon fill="none" stroke="#29235c" points="103.48,-1396.24 103.48,-1456.24 589.48,-1456.24 589.48,-1396.24 103.48,-1396.24"/>
<text text-anchor="start" x="113.99" y="-1416.44" font-family="Helvetica,sans-Serif" font-size="32.00" fill="#29235c">notifications_created &#160;&#160;&#160;</text>
<text text-anchor="start" x="442.04" y="-1417.44" font-family="Helvetica,sans-Serif" font-style="italic" font-size="32.00" fill="#29235c">integer</text>
<text text-anchor="start" x="539.84" y="-1417.44" font-family="Helvetica,sans-Serif" font-size="32.00" fill="#29235c"> </text>
<text text-anchor="start" x="548.73" y="-1417.44" font-family="Helvetica,sans-Serif" font-weight="bold" font-size="32.00" fill="#29235c">(!)</text>
<polygon fill="#e7e2dd" stroke="transparent" points="103.48,-1336.24 103.48,-1396.24 589.48,-1396.24 589.48,-1336.24 103.48,-1336.24"/>
<polygon fill="none" stroke="#29235c" points="103.48,-1336.24 103.48,-1396.24 589.48,-1396.24 589.48,-1336.24 103.48,-1336.24"/>
<text text-anchor="start" x="114.48" y="-1356.44" font-family="Helvetica,sans-Serif" font-size="32.00" fill="#29235c">error_count &#160;&#160;&#160;</text>
<text text-anchor="start" x="441.59" y="-1357.44" font-family="Helvetica,sans-Serif" font-style="italic" font-size="32.00" fill="#29235c">integer</text>
<text text-anchor="start" x="539.39" y="-1357.44" font-family="Helvetica,sans-Serif" font-size="32.00" fill="#29235c"> </text>
<text text-anchor="start" x="548.28" y="-1357.44" font-family="Helvetica,sans-Serif" font-weight="bold" font-size="32.00" fill="#29235c">(!)</text>
<polygon fill="#e7e2dd" stroke="transparent" points="103.48,-1276.24 103.48,-1336.24 589.48,-1336.24 589.48,-1276.24 103.48,-1276.24"/>
<polygon fill="none" stroke="#29235c" points="103.48,-1276.24 103.48,-1336.24 589.48,-1336.24 589.48,-1276.24 103.48,-1276.24"/>
<text text-anchor="start" x="114.48" y="-1296.44" font-family="Helvetica,sans-Serif" font-size="32.00" fill="#29235c">error_message &#160;&#160;&#160;</text>
<text text-anchor="start" x="526.91" y="-1297.44" font-family="Helvetica,sans-Serif" font-style="italic" font-size="32.00" fill="#29235c">text</text>
<polygon fill="#e7e2dd" stroke="transparent" points="103.48,-1216.24 103.48,-1276.24 589.48,-1276.24 589.48,-1216.24 103.48,-1216.24"/>
<polygon fill="none" stroke="#29235c" points="103.48,-1216.24 103.48,-1276.24 589.48,-1276.24 589.48,-1216.24 103.48,-1216.24"/>
<text text-anchor="start" x="114.48" y="-1236.44" font-family="Helvetica,sans-Serif" font-size="32.00" fill="#29235c">started_at &#160;&#160;&#160;</text>
<text text-anchor="start" x="391.83" y="-1237.44" font-family="Helvetica,sans-Serif" font-style="italic" font-size="32.00" fill="#29235c">timestamp</text>
<text text-anchor="start" x="539.39" y="-1237.44" font-family="Helvetica,sans-Serif" font-size="32.00" fill="#29235c"> </text>
<text text-anchor="start" x="548.28" y="-1237.44" font-family="Helvetica,sans-Serif" font-weight="bold" font-size="32.00" fill="#29235c">(!)</text>
<polygon fill="#e7e2dd" stroke="transparent" points="103.48,-1156.24 103.48,-1216.24 589.48,-1216.24 589.48,-1156.24 103.48,-1156.24"/>
<polygon fill="none" stroke="#29235c" points="103.48,-1156.24 103.48,-1216.24 589.48,-1216.24 589.48,-1156.24 103.48,-1156.24"/>
<text text-anchor="start" x="114.48" y="-1176.44" font-family="Helvetica,sans-Serif" font-size="32.00" fill="#29235c">finished_at &#160;&#160;&#160;</text>
<text text-anchor="start" x="430.92" y="-1177.44" font-family="Helvetica,sans-Serif" font-style="italic" font-size="32.00" fill="#29235c">timestamp</text>
<polygon fill="none" stroke="#29235c" stroke-width="2" points="102.48,-1155.24 102.48,-1757.24 590.48,-1757.24 590.48,-1155.24 102.48,-1155.24"/>
</g>
<!-- notifications -->
<g id="notifications" class="node">
<title>notifications</title>
<ellipse fill="none" stroke="black" stroke-width="0" cx="346.48" cy="-584.24" rx="289.83" ry="427.19"/>
<polygon fill="#1d71b8" stroke="transparent" points="143.48,-824.24 143.48,-884.24 549.48,-884.24 549.48,-824.24 143.48,-824.24"/>
<polygon fill="none" stroke="#29235c" points="143.48,-824.24 143.48,-884.24 549.48,-884.24 549.48,-824.24 143.48,-824.24"/>
<text text-anchor="start" x="199.77" y="-845.44" font-family="Helvetica,sans-Serif" font-weight="bold" font-size="32.00" fill="#ffffff"> &#160;&#160;&#160;&#160;&#160;&#160;notifications &#160;&#160;&#160;&#160;&#160;&#160;</text>
<polygon fill="#e7e2dd" stroke="transparent" points="143.48,-764.24 143.48,-824.24 549.48,-824.24 549.48,-764.24 143.48,-764.24"/>
<polygon fill="none" stroke="#29235c" points="143.48,-764.24 143.48,-824.24 549.48,-824.24 549.48,-764.24 143.48,-764.24"/>
<text text-anchor="start" x="154.48" y="-785.44" font-family="Helvetica,sans-Serif" font-weight="bold" font-size="32.00" fill="#29235c">id</text>
<text text-anchor="start" x="179.37" y="-785.44" font-family="Helvetica,sans-Serif" font-size="32.00" fill="#29235c"> &#160;&#160;&#160;</text>
<text text-anchor="start" x="462.05" y="-785.44" font-family="Helvetica,sans-Serif" font-style="italic" font-size="32.00" fill="#29235c">serial</text>
<polygon fill="#e7e2dd" stroke="transparent" points="143.48,-704.24 143.48,-764.24 549.48,-764.24 549.48,-704.24 143.48,-704.24"/>
<polygon fill="none" stroke="#29235c" points="143.48,-704.24 143.48,-764.24 549.48,-764.24 549.48,-704.24 143.48,-704.24"/>
<text text-anchor="start" x="154.01" y="-724.44" font-family="Helvetica,sans-Serif" font-size="32.00" fill="#29235c">subscription_id &#160;&#160;&#160;</text>
<text text-anchor="start" x="402.04" y="-725.44" font-family="Helvetica,sans-Serif" font-style="italic" font-size="32.00" fill="#29235c">integer</text>
<text text-anchor="start" x="499.84" y="-725.44" font-family="Helvetica,sans-Serif" font-size="32.00" fill="#29235c"> </text>
<text text-anchor="start" x="508.73" y="-725.44" font-family="Helvetica,sans-Serif" font-weight="bold" font-size="32.00" fill="#29235c">(!)</text>
<polygon fill="#e7e2dd" stroke="transparent" points="143.48,-644.24 143.48,-704.24 549.48,-704.24 549.48,-644.24 143.48,-644.24"/>
<polygon fill="none" stroke="#29235c" points="143.48,-644.24 143.48,-704.24 549.48,-704.24 549.48,-644.24 143.48,-644.24"/>
<text text-anchor="start" x="154.48" y="-664.44" font-family="Helvetica,sans-Serif" font-size="32.00" fill="#29235c">type &#160;&#160;&#160;</text>
<text text-anchor="start" x="335.84" y="-665.44" font-family="Helvetica,sans-Serif" font-style="italic" font-size="32.00" fill="#29235c">varchar(20)</text>
<text text-anchor="start" x="499.39" y="-665.44" font-family="Helvetica,sans-Serif" font-size="32.00" fill="#29235c"> </text>
<text text-anchor="start" x="508.28" y="-665.44" font-family="Helvetica,sans-Serif" font-weight="bold" font-size="32.00" fill="#29235c">(!)</text>
<polygon fill="#e7e2dd" stroke="transparent" points="143.48,-584.24 143.48,-644.24 549.48,-644.24 549.48,-584.24 143.48,-584.24"/>
<polygon fill="none" stroke="#29235c" points="143.48,-584.24 143.48,-644.24 549.48,-644.24 549.48,-584.24 143.48,-584.24"/>
<text text-anchor="start" x="154.48" y="-604.44" font-family="Helvetica,sans-Serif" font-size="32.00" fill="#29235c">release_tag &#160;&#160;&#160;</text>
<text text-anchor="start" x="357.31" y="-605.44" font-family="Helvetica,sans-Serif" font-style="italic" font-size="32.00" fill="#29235c">varchar(255)</text>
<polygon fill="#e7e2dd" stroke="transparent" points="143.48,-524.24 143.48,-584.24 549.48,-584.24 549.48,-524.24 143.48,-524.24"/>
<polygon fill="none" stroke="#29235c" points="143.48,-524.24 143.48,-584.24 549.48,-584.24 549.48,-524.24 143.48,-524.24"/>
<text text-anchor="start" x="154.48" y="-544.44" font-family="Helvetica,sans-Serif" font-size="32.00" fill="#29235c">status &#160;&#160;&#160;</text>
<text text-anchor="start" x="335.84" y="-545.44" font-family="Helvetica,sans-Serif" font-style="italic" font-size="32.00" fill="#29235c">varchar(20)</text>
<text text-anchor="start" x="499.39" y="-545.44" font-family="Helvetica,sans-Serif" font-size="32.00" fill="#29235c"> </text>
<text text-anchor="start" x="508.28" y="-545.44" font-family="Helvetica,sans-Serif" font-weight="bold" font-size="32.00" fill="#29235c">(!)</text>
<polygon fill="#e7e2dd" stroke="transparent" points="143.48,-464.24 143.48,-524.24 549.48,-524.24 549.48,-464.24 143.48,-464.24"/>
<polygon fill="none" stroke="#29235c" points="143.48,-464.24 143.48,-524.24 549.48,-524.24 549.48,-464.24 143.48,-464.24"/>
<text text-anchor="start" x="154.48" y="-484.44" font-family="Helvetica,sans-Serif" font-size="32.00" fill="#29235c">error_message &#160;&#160;&#160;</text>
<text text-anchor="start" x="486.91" y="-485.44" font-family="Helvetica,sans-Serif" font-style="italic" font-size="32.00" fill="#29235c">text</text>
<polygon fill="#e7e2dd" stroke="transparent" points="143.48,-404.24 143.48,-464.24 549.48,-464.24 549.48,-404.24 143.48,-404.24"/>
<polygon fill="none" stroke="#29235c" points="143.48,-404.24 143.48,-464.24 549.48,-464.24 549.48,-404.24 143.48,-404.24"/>
<text text-anchor="start" x="154.48" y="-424.44" font-family="Helvetica,sans-Serif" font-size="32.00" fill="#29235c">attempts &#160;&#160;&#160;</text>
<text text-anchor="start" x="401.59" y="-425.44" font-family="Helvetica,sans-Serif" font-style="italic" font-size="32.00" fill="#29235c">integer</text>
<text text-anchor="start" x="499.39" y="-425.44" font-family="Helvetica,sans-Serif" font-size="32.00" fill="#29235c"> </text>
<text text-anchor="start" x="508.28" y="-425.44" font-family="Helvetica,sans-Serif" font-weight="bold" font-size="32.00" fill="#29235c">(!)</text>
<polygon fill="#e7e2dd" stroke="transparent" points="143.48,-344.24 143.48,-404.24 549.48,-404.24 549.48,-344.24 143.48,-344.24"/>
<polygon fill="none" stroke="#29235c" points="143.48,-344.24 143.48,-404.24 549.48,-404.24 549.48,-344.24 143.48,-344.24"/>
<text text-anchor="start" x="154.48" y="-364.44" font-family="Helvetica,sans-Serif" font-size="32.00" fill="#29235c">created_at &#160;&#160;&#160;</text>
<text text-anchor="start" x="351.83" y="-365.44" font-family="Helvetica,sans-Serif" font-style="italic" font-size="32.00" fill="#29235c">timestamp</text>
<text text-anchor="start" x="499.39" y="-365.44" font-family="Helvetica,sans-Serif" font-size="32.00" fill="#29235c"> </text>
<text text-anchor="start" x="508.28" y="-365.44" font-family="Helvetica,sans-Serif" font-weight="bold" font-size="32.00" fill="#29235c">(!)</text>
<polygon fill="#e7e2dd" stroke="transparent" points="143.48,-284.24 143.48,-344.24 549.48,-344.24 549.48,-284.24 143.48,-284.24"/>
<polygon fill="none" stroke="#29235c" points="143.48,-284.24 143.48,-344.24 549.48,-344.24 549.48,-284.24 143.48,-284.24"/>
<text text-anchor="start" x="154.48" y="-304.44" font-family="Helvetica,sans-Serif" font-size="32.00" fill="#29235c">sent_at &#160;&#160;&#160;</text>
<text text-anchor="start" x="390.92" y="-305.44" font-family="Helvetica,sans-Serif" font-style="italic" font-size="32.00" fill="#29235c">timestamp</text>
<polygon fill="none" stroke="#29235c" stroke-width="2" points="142.48,-283.24 142.48,-885.24 550.48,-885.24 550.48,-283.24 142.48,-283.24"/>
</g>
<!-- notifications&#45;&gt;subscriptions -->
<!-- notifications&#45;&gt;subscriptions -->
<g id="edge6" class="edge">
<title>notifications:e&#45;&gt;subscriptions:w</title>
<path fill="none" stroke="#29235c" stroke-width="3" d="M550.48,-734.24C678.49,-734.24 707.19,-791.12 829.96,-794.12"/>
<polygon fill="#29235c" stroke="#29235c" stroke-width="3" points="830.1,-797.62 840.15,-794.24 830.19,-790.62 830.1,-797.62"/>
<text text-anchor="middle" x="849.04" y="-803.84" font-family="Helvetica,sans-Serif" font-size="32.00" fill="#29235c">1</text>
<text text-anchor="middle" x="544.26" y="-743.84" font-family="Helvetica,sans-Serif" font-size="32.00" fill="#29235c">*</text>
</g>
</g>
</svg>
